<?xml version="1.0" standalone="no"?>
<!DOCTYPE svg PUBLIC "-//W3C//DTD SVG 20010904//EN"
 "http://www.w3.org/TR/2001/REC-SVG-20010904/DTD/svg10.dtd">
<svg version="1.0" xmlns="http://www.w3.org/2000/svg"
 width="156.000000pt" height="156.000000pt" viewBox="0 0 156.000000 156.000000"
 preserveAspectRatio="xMidYMid meet">

<g transform="translate(0.000000,156.000000) scale(0.100000,-0.100000)"
fill="#000000" stroke="none">
<path d="M685 1550 c-316 -48 -576 -277 -656 -577 -29 -108 -29 -278 0 -386
72 -272 289 -485 566 -558 122 -32 301 -30 418 5 225 67 397 208 494 403 42
85 47 101 47 161 -1 38 -8 83 -16 103 -24 55 -87 119 -143 145 -49 23 -58 24
-322 24 l-273 0 0 -90 0 -89 254 -3 c254 -3 255 -3 280 -27 37 -35 34 -79 -11
-160 -73 -131 -213 -241 -368 -287 -81 -24 -239 -24 -320 0 -206 61 -368 225
-419 422 -20 78 -21 213 -1 288 51 197 215 361 420 422 96 29 250 25 348 -9
43 -15 103 -43 132 -62 l53 -34 61 74 61 74 -33 25 c-51 39 -174 94 -260 116
-93 23 -230 32 -312 20z"/>
<path d="M660 1201 c-77 -25 -115 -46 -167 -94 -59 -54 -100 -115 -122 -180
-56 -163 -23 -319 94 -445 95 -103 208 -147 360 -140 83 3 101 8 169 41 93 46
164 114 205 195 l31 62 -108 0 -108 0 -35 -36 c-49 -52 -101 -74 -179 -74
-110 0 -191 50 -236 145 -43 91 -25 205 44 279 68 72 212 99 297 56 22 -11 42
-20 45 -20 8 0 110 138 110 148 0 13 -100 60 -151 71 -68 16 -187 12 -249 -8z"/>
</g>
</svg>
